<svg xmlns="http://www.w3.org/2000/svg" xml:space="preserve" style="fill-rule:evenodd;clip-rule:evenodd;stroke-linecap:round;stroke-linejoin:round;stroke-miterlimit:10" viewBox="0 0 3000 600"><path d="M0-25.696c-3.85-1.019-6.871-2.927-8.287-5.235-1.791-2.93-1.282-6.813-.417-9.805 2.19-3.145 2.481-7.191.734-10.657a10.36 10.36 0 0 0-9.274-5.69h-253.947v-5.73c0-4.718-3.839-8.558-8.556-8.558h-46.438a8.54 8.54 0 0 0-6.581 3.094c-5.18-2.84-12.147-4.226-21.183-4.226-7.392 0-13.726 1.201-18.778 3.457a8.55 8.55 0 0 0-5.867-2.327h-29.185c-2.84 0-5.491 1.417-7.047 3.7-6.94-3.261-16.063-3.7-25.628-3.7-3.062 0-6.127.026-9.109.052-1.792.019-11.448.067-11.759.069a8.5 8.5 0 0 0-1.425-.119h-46.434a8.52 8.52 0 0 0-5.981 2.445c-6.332-3.043-14.213-3.573-20.749-3.573-7.811.061-13.719 1.358-18.184 3.325a8.56 8.56 0 0 0-5.73-2.199h-29.19a8.58 8.58 0 0 0-6.479 2.966c-5.545-2.288-11.533-2.575-15.216-2.751-3.451-.105-8.455-.215-12.218-.215-2.731 0-5.565.026-8.967.06l-11.201.061c-3.049.009-5.882 1.661-7.366 4.258a8.57 8.57 0 0 0-.033 8.538l.782 1.373h-18.245c-3.939 0-7.494 2.184-9.287 5.713-1.703 3.373-1.455 7.333.748 10.631.871 2.989 1.382 6.865-.419 9.804-1.415 2.31-4.385 4.207-7.775 5.113-4.78.969-8.28 5.218-8.324 10.085-.054 4.892 3.342 9.204 7.814 10.188 3.85 1.017 6.87 2.927 8.287 5.244 1.786 2.912 1.284 6.789.419 9.784a10.34 10.34 0 0 0-.789 10.676 10.35 10.35 0 0 0 9.291 5.726h16.757a8.66 8.66 0 0 0 .806 6.75 8.61 8.61 0 0 0 7.362 4.244l19.242.07c13.374 0 21.618-1.169 27.791-4.003a8.58 8.58 0 0 0 7.059 3.727h29.151a8.57 8.57 0 0 0 5.684-2.156c4.861 2.306 11.116 3.466 18.739 3.466 1.855 0 6.62-.102 10.84-1.06 7.053-1.665 12.266-4.349 15.736-8.123a8.6 8.6 0 0 0 1.136 3.635 8.58 8.58 0 0 0 7.383 4.238h28.984a8.54 8.54 0 0 0 4.615-1.356 8.56 8.56 0 0 0 4.771 1.46h22.067a8.54 8.54 0 0 0 4.742 1.602l5.449.165c.874.03 3.114.167 5.061.815.88.293 1.859.93 3.135 1.762 2.662 1.715 6.681 4.303 12.865 5.338 1.415.234 2.834.352 4.22.352 6.199 0 11.579-2.352 14.766-6.455a13.3 13.3 0 0 0 2.034-3.683h9.015a8.55 8.55 0 0 0 5.704-2.18c4.641 2.047 10.84 3.364 19.108 3.364 15.644 0 23.779-5.113 27.984-10.839a8.7 8.7 0 0 0 1.108 5.452 8.61 8.61 0 0 0 7.368 4.203h28.988a8.56 8.56 0 0 0 7.476-4.399 8.57 8.57 0 0 0 .787-6.389h261.939q.474.044.943.044c3.411 0 6.605-1.673 8.561-4.488 2.442-3.538 2.45-8.199-.092-11.95-.869-2.988-1.377-6.863.422-9.796 1.416-2.313 4.411-4.214 7.965-5.155 4.772-1.063 8.201-5.379 8.149-10.262-.048-4.896-3.512-9.129-7.827-9.97" style="fill:#231f20;fill-rule:nonzero;stroke:#58595b;stroke-width:.56px" transform="translate(2925.307 367.92)scale(4.16667)"/><path d="M0 119.31c-1.386 0-2.805-.117-4.22-.352-6.184-1.034-10.203-3.623-12.865-5.337-1.275-.833-2.255-1.469-3.135-1.763-1.947-.647-4.187-.784-5.061-.815l-5.449-.165a8.54 8.54 0 0 1-4.741-1.601h-22.068a8.56 8.56 0 0 1-4.771-1.461 8.53 8.53 0 0 1-4.615 1.356h-28.984a8.58 8.58 0 0 1-7.383-4.237 8.6 8.6 0 0 1-1.136-3.636c-3.47 3.775-8.683 6.459-15.736 8.123-4.22.959-8.985 1.061-10.84 1.061-7.622 0-13.878-1.161-18.739-3.466a8.57 8.57 0 0 1-5.684 2.155h-29.15a8.58 8.58 0 0 1-7.06-3.727c-6.173 2.834-14.417 4.003-27.79 4.003l-19.243-.069a8.61 8.61 0 0 1-7.362-4.244 8.66 8.66 0 0 1-.806-6.75h-16.756a10.35 10.35 0 0 1-9.291-5.726 10.34 10.34 0 0 1 .788-10.677c.865-2.995 1.367-6.872-.419-9.784-1.417-2.316-4.437-4.226-8.287-5.243-4.472-.985-7.868-5.296-7.814-10.188.044-4.868 3.544-9.117 8.324-10.086 3.39-.906 6.36-2.803 7.775-5.113 1.801-2.938 1.29-6.815.419-9.803-2.203-3.299-2.451-7.259-.747-10.631 1.792-3.529 5.347-5.713 9.286-5.713h18.246l-.783-1.374a8.57 8.57 0 0 1 .033-8.538c1.484-2.597 4.317-4.249 7.366-4.257l11.201-.061c3.402-.035 6.236-.061 8.967-.061 3.763 0 8.767.111 12.218.215 3.683.176 9.671.463 15.216 2.751a8.58 8.58 0 0 1 6.479-2.966h29.19a8.56 8.56 0 0 1 5.73 2.199c4.465-1.967 10.373-3.264 18.184-3.325 6.536 0 14.417.53 20.749 3.573a8.52 8.52 0 0 1 5.982-2.445h46.433q.72 0 1.425.12c.311-.003 9.967-.05 11.76-.07 2.981-.026 6.047-.052 9.108-.052 9.565 0 18.689.439 25.629 3.701C-8.872 2.547-6.221 1.13-3.381 1.13h29.186c2.214 0 4.304.854 5.866 2.327C36.723 1.202 43.057 0 50.449 0c9.037 0 16.003 1.386 21.183 4.227a8.54 8.54 0 0 1 6.581-3.095h46.438c4.717 0 8.556 3.84 8.556 8.558v5.731h253.948a10.36 10.36 0 0 1 9.273 5.689c1.747 3.466 1.456 7.512-.734 10.657-.865 2.992-1.373 6.876.417 9.805 1.417 2.308 4.437 4.216 8.287 5.235 4.315.841 7.779 5.075 7.827 9.971.052 4.883-3.377 9.199-8.148 10.261-3.555.941-6.549 2.843-7.966 5.155-1.799 2.934-1.291 6.808-.422 9.797 2.543 3.75 2.534 8.412.092 11.95a10.42 10.42 0 0 1-9.504 4.444H124.338a8.57 8.57 0 0 1-.787 6.389 8.55 8.55 0 0 1-7.476 4.398H87.087a8.61 8.61 0 0 1-7.368-4.203 8.7 8.7 0 0 1-1.108-5.452c-4.205 5.726-12.34 10.84-27.984 10.84-8.268 0-14.467-1.317-19.108-3.364a8.56 8.56 0 0 1-5.704 2.179H16.8a13.4 13.4 0 0 1-2.033 3.684C11.579 116.959 6.199 119.31 0 119.31" style="fill:#231f20;fill-rule:nonzero" transform="translate(1240.313 65.822)scale(4.16667)"/><path d="M0 119.31c-1.386 0-2.805-.117-4.22-.352-6.184-1.034-10.203-3.623-12.865-5.337-1.275-.833-2.255-1.469-3.135-1.763-1.947-.647-4.187-.784-5.061-.815l-5.449-.165a8.54 8.54 0 0 1-4.741-1.601h-22.068a8.56 8.56 0 0 1-4.771-1.461 8.53 8.53 0 0 1-4.615 1.356h-28.984a8.58 8.58 0 0 1-7.383-4.237 8.6 8.6 0 0 1-1.136-3.636c-3.47 3.775-8.683 6.459-15.736 8.123-4.22.959-8.985 1.061-10.84 1.061-7.622 0-13.878-1.161-18.739-3.466a8.57 8.57 0 0 1-5.684 2.155h-29.15a8.58 8.58 0 0 1-7.06-3.727c-6.173 2.834-14.417 4.003-27.79 4.003l-19.243-.069a8.61 8.61 0 0 1-7.362-4.244 8.66 8.66 0 0 1-.806-6.75h-16.756a10.35 10.35 0 0 1-9.291-5.726 10.34 10.34 0 0 1 .788-10.677c.865-2.995 1.367-6.872-.419-9.784-1.417-2.316-4.437-4.226-8.287-5.243-4.472-.985-7.868-5.296-7.814-10.188.044-4.868 3.544-9.117 8.324-10.086 3.39-.906 6.36-2.803 7.775-5.113 1.801-2.938 1.29-6.815.419-9.803-2.203-3.299-2.451-7.259-.747-10.631 1.792-3.529 5.347-5.713 9.286-5.713h18.246l-.783-1.374a8.57 8.57 0 0 1 .033-8.538c1.484-2.597 4.317-4.249 7.366-4.257l11.201-.061c3.402-.035 6.236-.061 8.967-.061 3.763 0 8.767.111 12.218.215 3.683.176 9.671.463 15.216 2.751a8.58 8.58 0 0 1 6.479-2.966h29.19a8.56 8.56 0 0 1 5.73 2.199c4.465-1.967 10.373-3.264 18.184-3.325 6.536 0 14.417.53 20.749 3.573a8.52 8.52 0 0 1 5.982-2.445h46.433q.72 0 1.425.12c.311-.003 9.967-.05 11.76-.07 2.981-.026 6.047-.052 9.108-.052 9.565 0 18.689.439 25.629 3.701C-8.872 2.547-6.221 1.13-3.381 1.13h29.186c2.214 0 4.304.854 5.866 2.327C36.723 1.202 43.057 0 50.449 0c9.037 0 16.003 1.386 21.183 4.227a8.54 8.54 0 0 1 6.581-3.095h46.438c4.717 0 8.556 3.84 8.556 8.558v5.731h253.948a10.36 10.36 0 0 1 9.273 5.689c1.747 3.466 1.456 7.512-.734 10.657-.865 2.992-1.373 6.876.417 9.805 1.417 2.308 4.437 4.216 8.287 5.235 4.315.841 7.779 5.075 7.827 9.971.052 4.883-3.377 9.199-8.148 10.261-3.555.941-6.549 2.843-7.966 5.155-1.799 2.934-1.291 6.808-.422 9.797 2.543 3.75 2.534 8.412.092 11.95a10.42 10.42 0 0 1-9.504 4.444H124.338a8.57 8.57 0 0 1-.787 6.389 8.55 8.55 0 0 1-7.476 4.398H87.087a8.61 8.61 0 0 1-7.368-4.203 8.7 8.7 0 0 1-1.108-5.452c-4.205 5.726-12.34 10.84-27.984 10.84-8.268 0-14.467-1.317-19.108-3.364a8.56 8.56 0 0 1-5.704 2.179H16.8a13.4 13.4 0 0 1-2.033 3.684C11.579 116.959 6.199 119.31 0 119.31Z" style="fill:none;fill-rule:nonzero;stroke:#58595b;stroke-width:.56px;stroke-linecap:butt;stroke-linejoin:miter" transform="translate(1240.313 65.822)scale(4.16667)"/><path d="M0 69.676q-.286 0-.568-.043h-650.248a3.72 3.72 0 0 1-3.338-2.057 3.72 3.72 0 0 1 .333-3.909c.372-.505.539-.8.593-.902 2.055-6.329 1.767-11.9-.828-16.137-2.336-3.817-6.691-6.73-12.265-8.203-1.64-.363-2.874-1.916-2.854-3.672a3.75 3.75 0 0 1 2.986-3.625c5.443-1.439 9.795-4.349 12.133-8.166 2.61-4.262 2.891-9.854.815-16.173a9 9 0 0 0-.555-.837 3.72 3.72 0 0 1-.323-3.9A3.72 3.72 0 0 1-650.783 0H-.067c1.416 0 2.694.784 3.335 2.048a3.73 3.73 0 0 1-.323 3.906 7 7 0 0 0-.566.869C.323 13.141.61 18.719 3.206 22.962c2.337 3.816 6.693 6.729 12.267 8.202 1.59.316 2.851 1.839 2.87 3.593a3.76 3.76 0 0 1-2.934 3.688c-5.503 1.452-9.865 4.364-12.203 8.181-2.608 4.26-2.89 9.849-.818 16.163q.224.393.612.914a3.741 3.741 0 0 1-3 5.973" style="fill:#231f20;fill-rule:nonzero" transform="translate(2853.74 157.85)scale(4.16667)"/><path d="M0 65.402a1.6 1.6 0 0 1-.371-.043h-650.445a1.602 1.602 0 0 1-1.288-2.557c.71-.961.868-1.392.869-1.397 2.302-6.993 1.953-13.212-.999-18.031-2.626-4.288-7.435-7.538-13.54-9.152a1.61 1.61 0 0 1-1.265-1.581 1.59 1.59 0 0 1 1.273-1.555c6.098-1.607 10.906-4.858 13.532-9.144 2.951-4.821 3.301-11.04 1.014-17.985a1 1 0 0 1-.041-.145l-.001.002c-.011 0-.196-.423-.812-1.263A1.603 1.603 0 0 1-650.783 0H-.067a1.6 1.6 0 0 1 1.291 2.551C.54 3.485.387 3.903.385 3.907c-2.302 6.995-1.951 13.214 1 18.035 2.625 4.286 7.433 7.537 13.541 9.151a1.595 1.595 0 0 1 1.281 1.552 1.604 1.604 0 0 1-1.26 1.577C8.82 35.836 4.01 39.086 1.385 43.373c-2.951 4.82-3.302 11.039-1.014 17.984q.024.069.039.14l.001-.003c.011 0 .206.449.875 1.348A1.606 1.606 0 0 1 0 65.402" style="fill:#976f29;fill-rule:nonzero" transform="translate(2853.74 166.754)scale(4.16667)"/><path d="M0-.058c-6.509 1.721-11.632 5.187-14.497 9.864-3.237 5.285-3.6 11.946-1.17 19.323 0 0 .127.562 1.151 1.94l-.15-.044h-650.666c.995-1.347 1.118-1.896 1.118-1.896 2.43-7.377 2.067-14.038-1.17-19.323-2.865-4.677-7.988-8.143-14.497-9.864-.029-.006-.055-.008-.084-.015.029-.006.055-.008.084-.014 6.509-1.721 11.632-5.187 14.497-9.864 3.237-5.286 3.6-11.946 1.17-19.324 0 0-.119-.535-1.085-1.852h650.717c-.966 1.317-1.085 1.852-1.085 1.852-2.43 7.378-2.067 14.038 1.17 19.324C-11.632-5.274-6.509-1.808 0-.087c.029.006.055.008.084.014C.055-.066.029-.064 0-.058" style="fill:#231f20;fill-rule:nonzero" transform="translate(2914.223 303.13)scale(4.16667)"/><path d="M0 13.531c-3.209 5.236-4.296 11.551-3.193 18.383H-637.56c1.12-6.776.021-13.091-3.219-18.386-1.57-2.564-3.632-4.836-6.15-6.784 2.518-1.945 4.58-4.217 6.15-6.779 3.203-5.238 4.296-11.537 3.203-18.348H-3.225C-4.333-11.618-3.23-5.319.011-.035c1.564 2.562 3.626 4.839 6.154 6.79C3.637 8.697 1.569 10.97 0 13.531m1.693-14.6c-3.37-5.493-4.195-12.202-2.507-19.289h-639.162c1.682 7.237.841 13.852-2.485 19.289-1.891 3.084-4.601 5.734-7.923 7.813 3.327 2.085 6.032 4.735 7.923 7.816 3.369 5.506 4.189 12.226 2.485 19.329H-.793c-1.692-7.264-.851-13.893 2.48-19.326 1.875-3.068 4.564-5.708 7.944-7.803-3.337-2.084-6.053-4.74-7.938-7.829" style="fill:#2a8a3d;fill-rule:nonzero" transform="translate(2832.702 274.73)scale(4.16667)"/><path d="M0 85.702a1.9 1.9 0 0 1-1.636-.939 1.9 1.9 0 0 1-.011-1.886L.19 79.636c1.308-2.315 1.667-3.683 1.667-6.359V7.452c-1.76.072-3.452.292-4.945.903l-5.073 2.071a1.9 1.9 0 0 1-1.77-.182 1.89 1.89 0 0 1-.836-1.571V-7.116a1.89 1.89 0 0 1 1.893-1.891h46.437a1.89 1.89 0 0 1 1.893 1.891V8.727a1.9 1.9 0 0 1-.846 1.579 1.9 1.9 0 0 1-1.047.313 1.9 1.9 0 0 1-.738-.149l-5.119-2.171c-1.426-.601-3.022-.791-4.868-.852v65.83c0 2.961.251 3.892 1.698 6.228l2.056 3.305a1.89 1.89 0 0 1 .047 1.919 1.89 1.89 0 0 1-1.652.973zm-297.235-16.321q.607 0 .954-.023c.005-.126.01-.29.01-.503 0-4.678.051-12.146.113-19.726l.031-2.969c.077-8.466.154-17.229.154-22.421 0-5.227 0-10.634-.293-15.83 0-.026-.005-.049-.005-.072h-2.642v61.516c.729.015 1.452.028 1.678.028m-28.5 16.526a1.9 1.9 0 0 1-1.631-.939 1.9 1.9 0 0 1-.01-1.881l1.816-3.223c1.297-2.299 1.672-3.752 1.672-6.482V3.628c0-2.946-.293-4.09-1.657-6.441l-1.852-3.246a1.89 1.89 0 0 1 .005-1.883 1.88 1.88 0 0 1 1.626-.947l11.219-.059c3.406-.036 6.217-.062 8.93-.062 3.699 0 8.618.108 12.013.213 13.081.626 21.329 3.557 22.145 16.223.313 5.143.313 10.339.313 15.366 0 4.732-.077 13.003-.154 21.007-.077 8.04-.154 16.359-.154 21.158 0 8.451-2.863 13.888-8.997 17.109-5.222 2.743-13.019 3.913-26.064 3.913zM-36.343 6.603c-.302 0-1.015 0-1.056 1.093v19.295c.292-2.243 1.19-4.319 2.021-6.236.718-1.683 1.395-3.254 1.621-4.691.466-3.018.102-6.428-.513-7.978-.57-1.412-.975-1.483-2.073-1.483m-1.056 62.488c0 1.057.554 1.057.79 1.057.718 0 1.195 0 1.22-2.111.016-.842-.035-4.235-.082-6.96l-.056-4.809c.01-2.972.02-6.018-.887-8.566l-.985-2.758zm.938 17.797c-21.626 0-25.519-9.762-25.914-15.582-.303-5.91-.303-11.794-.303-17.486 0-5.638.077-14.812.154-23.688l.031-3.98c.062-7.666.113-14.912.113-19.657 0-10.416 9.623-16.634 25.74-16.634 8.997 0 15.404 1.442 19.589 4.409 5.838 4.131 6.233 10.126 6.135 15.91-.02 1.94-.041 4.111 1.242 5.769l1.682 2.165c.375.483.493 1.117.318 1.702a1.89 1.89 0 0 1-1.195 1.249l-3.16 1.088c-.938.321-2.657.976-5.042 2.115a53 53 0 0 0-3.401 1.904c1.303.642 2.103 1.463 2.611 2.189 1.503 2.117 1.395 4.735-.277 6.659-1.754 2.04-4.827 3.264-8.217 3.264-4.345 0-9.357-2.163-10.752-6.998a10 10 0 0 1-.292-1.393v13.436q.069-.153.169-.295c.354-.503.928-.8 1.544-.8h25.027a1.89 1.89 0 0 1 1.77 2.553l-1.108 2.972c-1.016 2.72-.852 5.94-.708 8.781.072 1.386.148 9.9.148 11.289 0 12.646-8.715 19.059-25.904 19.059M-217.466 6.662c-.277 0-1.118 0-1.19 2.376-.057 2.474.005 5.237.051 7.067l.031 1.799c0 .96-.005 1.914.097 2.861.283-1.655.878-3.131 1.437-4.514.472-1.152.882-2.158 1.036-3.107.318-1.902-.021-3.88-.349-5.389-.256-1.093-.836-1.093-1.113-1.093m99.667 19.051c1.882-.08 2.339-.385 2.359-.401l-.205-17.498h-.026c-.169 0-.764-.167-2.128-.249zm-100.544 31.348a26.5 26.5 0 0 0-.231 3.636c-.005.863-.036 8.384-.031 8.836 0 .107.026.249.062.387.164-.364.313-.878.338-1.501.046-1.288-.051-6.39-.123-10.095zm100.374 10.619c-.051 4.532-.097 8.373 2.057 11.989l.123.213c.159-.557.395-1.599.554-3.131-.005 0 .113-11.352.113-14.111 0-3.223-.231-15.905-.518-19.262-.015-.313-.046-.872-.097-1.07.005.051-.052.072-.206.072-.277 0-.851-.064-1.867-.11-.041 7.321-.159 25.41-.159 25.41m30.88 28.161c-1.011 0-2.067-.087-3.134-.264-4.817-.806-7.884-2.782-10.346-4.368-1.544-1.006-2.95-1.92-4.632-2.479-2.693-.896-5.509-1.106-6.946-1.152l-5.468-.167a1.9 1.9 0 0 1-1.662-1.098 2 2 0 0 1-.149-.506h-25.201a1.89 1.89 0 0 1-1.631-.936 1.9 1.9 0 0 1-.015-1.887l1.831-3.241c1.308-2.317 1.667-3.685 1.667-6.361V3.628c0-2.189-.149-3.354-.77-4.762v9.861a1.892 1.892 0 0 1-2.631 1.743l-5.114-2.171c-1.426-.601-3.026-.791-4.873-.852v65.83c0 2.961.251 3.892 1.698 6.228l2.057 3.305a1.892 1.892 0 0 1-1.606 2.892h-28.982a1.89 1.89 0 0 1-1.631-.937 1.9 1.9 0 0 1-.015-1.886l1.831-3.241c1.313-2.325 1.672-3.693 1.672-6.361V7.449c-1.759.075-3.457.295-4.95.906l-5.068 2.071a1.9 1.9 0 0 1-.667.139c.016.015 1.903 2.235 1.903 2.235a1.896 1.896 0 0 1-.815 3.013l-3.252 1.144c-.857.295-2.36.896-4.53 1.991a52 52 0 0 0-3.195 1.869c1.415.628 2.298 1.485 2.847 2.242 1.503 2.01 1.467 4.573-.108 6.511-1.354 1.652-3.509 2.792-6.012 3.236 6.135 4.413 11.536 9.222 11.895 15.856.103 1.375.083 2.736.031 4.183l-.025 1.919c0 1.494.164 14.091.164 14.091.102 7.001-1.744 13.942-15.861 17.276-3.616.821-8.038.882-9.31.882-20.928 0-24.037-9.359-24.56-16.397-.103-1.489-.123-11.189-.123-11.284 0-2.104-.272-3.775-.857-5.258l-1.2-3.036v22.241c0 2.972.344 3.829 1.831 6.208l2.088 3.315c.369.585.39 1.322.056 1.922a1.9 1.9 0 0 1-1.656.978h-29.152a1.89 1.89 0 0 1-1.631-.937 1.9 1.9 0 0 1-.015-1.886l1.831-3.241c1.318-2.33 1.677-3.695 1.677-6.359V3.523c0-2.974-.277-4.057-1.651-6.438l-1.888-3.254a1.896 1.896 0 0 1 1.636-2.841h29.193c.687 0 1.323.375 1.656.978a1.9 1.9 0 0 1-.056 1.922l-2.093 3.326c-1.487 2.337-1.826 3.515-1.826 6.307v46.191a1.89 1.89 0 0 1 1.77-1.229h23.283c-1.791-2.143-5.197-4.488-8.31-6.631-7.407-5.084-15.04-10.321-15.758-18.466-.113-1.104-.092-2.225-.051-3.316l.03-1.544V5.779c.411-5.954 4.232-15.751 25.32-15.916 14.88.003 22.636 3.347 24.785 10.994v-7.973c0-1.045.847-1.891 1.893-1.891h46.433c.236 0 .461.043.672.12.041-.002 10.12-.046 12.582-.072 2.95-.025 5.997-.051 9.039-.051 22.318 0 31.649 2.984 31.649 21.481 0 .909.036 1.899.077 2.946.236 5.784.528 12.872-3.473 18.12 2.524 3.554 3.688 7.827 3.75 13.608.02 2.002-.026 24.025-.026 24.025 0 1.989.195 6.012.718 8.317q.04.17.087.354l.123-.213c1.314-2.312 1.673-3.677 1.673-6.349V3.523c0-2.974-.277-4.057-1.652-6.438l-1.888-3.254a1.896 1.896 0 0 1 1.637-2.841h29.187c.687 0 1.323.375 1.656.978a1.9 1.9 0 0 1-.056 1.922l-2.093 3.326c-1.482 2.337-1.821 3.515-1.821 6.307v69.756c0 2.985.344 3.839 1.837 6.197l2.087 3.329c.37.582.39 1.319.057 1.922a1.9 1.9 0 0 1-1.657.975h-15.517c.949 2.038.693 4.339-.8 6.264-1.883 2.428-5.437 3.875-9.5 3.875" style="fill:#231f20;fill-rule:nonzero" transform="translate(1603.18 135.844)scale(4.16667)"/><path d="m0 81.921 1.833-3.241c1.474-2.603 1.925-4.308 1.925-7.292V1.633c0-3.324-.359-4.705-1.91-7.386L-.038-9.01h29.19l-2.093 3.326c-1.68 2.647-2.115 4.151-2.115 7.317v69.755c0 3.359.458 4.555 2.123 7.212l2.085 3.321zm88.67 0 1.833-3.241c1.466-2.598 1.917-4.305 1.917-7.294V3.634h-.153c-2.467 0-5.079.131-7.401 1.079l-5.071 2.071V-9.007h46.435V6.837l-5.117-2.17c-2.176-.918-4.567-1.019-7.5-1.033v67.752c0 3.31.352 4.594 1.978 7.225l2.062 3.31zm182.998 0 1.833-3.241c1.467-2.598 1.917-4.305 1.917-7.294V3.634h-.152c-2.467 0-5.079.131-7.401 1.079l-5.071 2.071V-9.007h46.435V6.837l-5.117-2.17c-2.177-.918-4.567-1.019-7.5-1.033v67.752c0 3.31.351 4.594 1.978 7.225l2.062 3.31zM-25.57 69.381c2.421 0 2.857-.179 2.857-2.416 0-4.675.053-12.136.114-19.712l.031-2.962c.076-8.478.152-17.244.152-22.441 0-5.253 0-10.688-.297-15.939-.13-1.857-.329-1.857-1.658-1.857h-4.766v65.263s3.055.064 3.567.064m-28.495 12.746 1.818-3.225c1.451-2.569 1.917-4.367 1.917-7.409V1.737c0-3.289-.374-4.737-1.91-7.389l-1.848-3.238 11.22-.058c3.406-.035 6.209-.062 8.92-.062 3.674 0 8.577.11 11.952.214C-7.454-8.1-2.329-4.455-1.68 5.657c.305 5.079.305 10.247.305 15.246 0 4.725-.076 12.992-.152 20.987-.077 8.047-.153 16.372-.153 21.176 0 7.774-2.459 12.534-7.981 15.435-4.934 2.59-12.464 3.696-25.188 3.696zm289.273.979c-14.893 0-23.424-4.907-24.027-13.818-.298-5.831-.298-11.692-.298-17.357 0-5.633.076-14.804.152-23.675l.023-2.574c.061-8.183.123-16.04.123-21.076 0-9.233 8.912-14.745 23.843-14.745 8.585 0 14.641 1.327 18.498 4.062 5.087 3.599 5.43 8.836 5.339 14.335-.023 2.125-.062 4.769 1.634 6.958l1.688 2.17-3.162 1.089c-.97.33-2.757 1.012-5.239 2.195-3.025 1.56-5.423 3.08-7.004 4.426.069-.003.13-.003.199-.003 2.49.174 4.277 1.025 5.277 2.462 1.001 1.413.94 3.075-.152 4.333-1.406 1.635-3.941 2.614-6.79 2.614-3.643 0-7.813-1.742-8.936-5.633-.939-3.3.382-6.339 1.658-9.278.74-1.731 1.481-3.454 1.741-5.124.473-3.059.198-6.915-.626-8.973-.894-2.237-2.078-2.673-3.827-2.673-2.91 0-2.948 2.914-2.948 2.943V67.2c0 .303.077 2.949 2.681 2.949.993 0 3.062 0 3.116-3.976.015-.843-.038-4.266-.084-7.017l-.053-4.801c.007-3.117.015-6.334-1.001-9.178l-1.054-2.941h25.028l-1.108 2.97c-1.161 3.099-.977 6.54-.825 9.575.069 1.343.146 9.781.146 11.156 0 11.553-7.852 17.169-24.012 17.169M54.202 2.88c-2.581 0-3.032 2.638-3.078 4.212-.061 2.518 0 5.317.046 7.169l.031 1.787c0 1.095 0 2.216.145 3.329.168 2.296 2.49 4.603 5.598 6.977a6.86 6.86 0 0 1-1.55-2.612c-1.123-3.474-.046-6.126.993-8.689.481-1.18.947-2.31 1.145-3.492.367-2.227-.007-4.429-.374-6.099-.176-.773-.817-2.582-2.956-2.582m-.626 80.352c-19.132 0-22.171-7.827-22.675-14.646-.092-1.292-.115-9.957-.115-11.145 0-2.358-.321-4.25-.993-5.952l-1.191-3.002h24.676l-1.008 2.925c-.718 2.076-1.069 4.495-1.069 7.396 0 .003-.038 8.376-.031 8.855.016.707.42 2.716 2.101 2.716.878 0 2.001-1.686 2.077-3.781.046-1.303-.046-6.457-.115-10.201l-.053-3.663c0-1.312 0-2.54-.153-3.87-.305-3.529-5.216-6.907-10.41-10.482-7.026-4.822-14.274-9.794-14.915-17.051-.107-1.041-.084-2.077-.046-3.083l.038-1.568V3.888c.359-5.196 3.88-13.869 23.439-14.025 20.674.006 23.516 6.803 23.516 14.149 0 2.317.129 3.984 1.794 5.935l1.864 2.189-3.254 1.145c-.893.308-2.474.937-4.758 2.085-3.498 1.894-5.598 3.425-6.858 4.605q.297-.017.596-.018c2.444.136 4.231.939 5.239 2.33 1.008 1.349.993 2.923-.046 4.202-1.405 1.718-3.994 2.743-6.912 2.743-1.665 0-3.452-.37-5.01-1.151q1.205.85 2.467 1.713c7.149 4.923 14.534 10.005 14.916 17.083.099 1.344.076 2.639.03 4.017l-.03 1.953c0 1.528.168 14.149.168 14.149.084 5.788-.947 12.229-14.404 15.405-3.414.776-7.653.835-8.875.835m99.301-57.497c5.033 0 5.033-1.268 5.033-2.106V5.842c0-.736 0-2.103-5.629-2.103h-.305v21.988zm-1.069 40.042c-.054 4.568-.115 8.876 2.321 12.97l1.658 2.778 1-1.25c.199-.254.436-.591.634-.99.26-.548.657-1.991.894-4.225 0 0 .122-11.526.122-14.312 0-3.235-.237-16.002-.527-19.422-.107-2.256-.252-2.682-4.208-2.847a20 20 0 0 0-1.619-.051h-.107c-.023 5.189-.168 27.349-.168 27.349M184.58 92.06c-.917 0-1.864-.08-2.826-.24-4.43-.742-7.195-2.521-9.631-4.092-1.543-1.004-3.131-2.039-5.063-2.684-2.926-.974-5.942-1.199-7.477-1.247l-5.476-.169 1.283-1.603h-28.35l1.833-3.24c1.458-2.588 1.909-4.29 1.909-7.292V1.737c0-3.329-.359-4.71-1.902-7.389l-1.848-3.238s10.005-.042 12.472-.066c2.94-.027 5.98-.054 9.02-.054 22.331 0 29.755 2.831 29.755 19.591 0 .934.038 1.951.084 3.029.237 5.917.534 13.233-4.025 17.978 2.94 3.481 4.231 7.616 4.292 13.685.023 2.002-.023 24.001-.023 24.001 0 2.16.206 6.273.772 8.743.381 1.696 1.313 3.896 2.26 5.544q.126-.168.275-.334c.504-.549 1.192-.993 2.001-1.306h-2.696l1.848-3.243c1.474-2.593 1.925-4.295 1.925-7.29V1.633c0-3.324-.359-4.705-1.909-7.386l-1.887-3.257h29.19l-2.092 3.326c-1.681 2.647-2.116 4.151-2.116 7.317v69.755c0 3.361.458 4.557 2.131 7.209l2.085 3.324h-20.3c.893.335 1.649.816 2.207 1.418 1.566 1.7 1.673 3.784.283 5.577-1.528 1.967-4.514 3.144-8.004 3.144" style="fill:#976f29;fill-rule:nonzero" transform="translate(471.234 143.72)scale(4.16667)"/><path d="M0-98.357v13.656l-3.414-1.445c-2.696-1.14-5.575-1.148-9.203-1.148v68.54c0 3.41.39 4.82 2.07 7.539l1.375 2.207h-25.609l1.222-2.159c1.528-2.708 1.994-4.48 1.994-7.587v-68.54h-1.276c-2.627 0-5.407.141-7.965 1.185l-3.384 1.381v-13.629zm-100.828 87.134 1.39 2.215h-25.784l1.23-2.162c1.535-2.703 2.001-4.474 2.001-7.581v-69.756c0-3.409-.39-4.915-1.986-7.682l-1.26-2.171h25.791l-1.398 2.219c-1.733 2.735-2.207 4.375-2.207 7.634v69.756c0 3.474.497 4.793 2.223 7.528m-48.246-73.074v17.787c0 1.349-.618 2.896-6.163 2.896l-2.016-.016v-23.56h1.428c6.751 0 6.751 2.026 6.751 2.893m27.961 76.328c-1.734 0-3.277.548-4.124 1.477-.65.722-.894 1.549-.718 2.347-1.482-1.421-3.307-5.315-3.888-7.854-.572-2.521-.779-6.682-.779-8.866 0 0 .046-21.994.023-23.996-.061-6.024-1.375-10.236-4.521-13.722 4.789-4.501 4.498-11.804 4.254-17.922a74 74 0 0 1-.084-3.053c0-16.209-6.797-18.802-28.633-18.802-3.032 0-6.071.027-9.004.054-2.467.024-10.83.059-10.83.059l1.237 2.162c1.589 2.759 1.979 4.265 1.979 7.683v69.755c0 3.121-.466 4.892-1.986 7.584l-1.222 2.16h25.7l-1.306-2.187c-2.521-4.236-2.467-8.616-2.406-13.275 0 0 .16-25.088.168-28.125l1.229-.011c.65 0 1.169.014 1.688.054 4.476.187 5.14.923 5.262 3.588.298 3.527.527 16.348.527 19.468 0 2.794-.122 14.37-.122 14.37-.244 2.326-.657 3.808-.954 4.427a6.6 6.6 0 0 1-.711 1.115l-1.787 2.235 3.651.112c1.619.051 4.796.289 7.904 1.325 2.085.693 3.727 1.761 5.347 2.815 2.451 1.579 4.987 3.211 9.126 3.904.871.145 1.734.22 2.566.22 3.071 0 5.69-1.022 7.011-2.732 1.192-1.536 1.108-3.316-.229-4.769-.931-1.001-2.566-1.6-4.368-1.6m-109.52-71.819 1.245 1.461-2.169.763c-.916.318-2.551.963-4.911 2.148-5.842 3.169-7.996 5.411-8.745 6.773.879-.484 1.978-.754 3.139-.754 2.047.115 3.452.821 4.239 1.9.833 1.116.825 2.408-.023 3.452-1.207 1.472-3.421 2.344-5.934 2.344-3.116 0-6.736-1.507-7.821-4.87-1.061-3.284-.023-5.839.978-8.309.481-1.178.97-2.363 1.176-3.608.39-2.344 0-4.602-.374-6.31-.466-2.033-1.986-3.251-4.071-3.251-3.551 0-4.155 3.126-4.2 4.988-.062 2.529 0 5.336.045 7.196l.031 1.785c0 1.108 0 2.25.145 3.388.267 3.668 5.369 7.187 10.769 10.915 6.996 4.814 14.205 9.776 14.572 16.541.099 1.335.069 2.611.03 3.971l-.03 1.961c0 1.536.168 14.164.168 14.164.084 5.762-.894 11.641-13.641 14.652-3.245.735-7.339.792-8.515.792-18.085 0-21.041-7.025-21.553-13.897-.091-1.287-.114-9.923-.114-11.105 0-2.435-.329-4.392-1.031-6.163l-.795-2.002h21.767l-.672 1.951c-.741 2.138-1.1 4.619-1.1 7.581 0 0-.038 8.384-.031 8.863.016 1.212.711 3.498 3.223 3.498 1.91 0 3.124-2.315 3.2-4.552.054-1.33-.045-6.69-.114-10.463l-.054-3.428c0-1.325 0-2.572-.152-3.923-.329-3.825-5.4-7.309-10.761-10.996-6.859-4.707-13.946-9.575-14.565-16.525-.107-1.025-.076-2.036-.046-3.018l.039-1.571v-12.805c.343-4.929 3.696-13.088 22.331-13.235 18.681.005 22.378 5.344 22.378 13.358 0 2.374.137 4.218 1.947 6.34M-64.032-63.58c.841-.436 1.849-.677 2.903-.677 2.1.15 3.482.894 4.261 2.018.833 1.175.795 2.55-.099 3.578-1.199 1.397-3.376 2.234-5.827 2.234-3.177 0-6.836-1.546-7.829-4.998-.886-3.099.39-6.045 1.627-8.893.749-1.742 1.512-3.505 1.787-5.269.481-3.139.199-7.126-.664-9.272-.924-2.31-2.345-3.249-4.911-3.249-3.223 0-4.071 2.441-4.071 3.733v61.436c0 .383.107 3.738 3.804 3.738 1.145 0 4.177 0 4.238-4.757.016-.843-.038-4.277-.084-7.033l-.053-4.798c.008-3.193.015-6.425-1.031-9.364l-.703-1.961h22.126l-.741 1.98c-1.199 3.217-1.016 6.722-.856 9.813.069 1.33.146 9.746.146 11.119 0 11.175-7.271 16.38-22.89 16.38-14.197 0-22.331-4.64-22.904-13.067-.298-5.812-.298-11.662-.298-17.319 0-5.633.077-14.801.153-23.67l.023-2.574c.061-8.023.122-15.992.122-21.082 0-8.737 8.493-13.955 22.721-13.955 8.271 0 14.061 1.252 17.696 3.827 4.773 3.38 5.102 8.445 5.018 13.773-.031 2.224-.069 4.975 1.772 7.343l1.122 1.448-2.108.725c-.993.337-2.826 1.036-5.376 2.251-4.667 2.405-7.875 4.72-9.074 6.542m-163.156-34.777h44.189v13.656l-3.414-1.445c-2.696-1.14-5.575-1.148-9.203-1.148v68.54c0 3.41.39 4.82 2.07 7.539l1.375 2.207h-25.608l1.222-2.159c1.527-2.708 1.993-4.48 1.993-7.587v-68.54h-1.275c-2.628 0-5.408.141-7.966 1.185l-3.383 1.381zm-57.097 9.85v69.756c0 3.471.496 4.793 2.215 7.53l1.39 2.213h-25.769l1.222-2.159c1.535-2.716 2.001-4.488 2.001-7.584v-69.756c0-3.409-.389-4.915-1.986-7.682l-1.26-2.171h25.792l-1.398 2.219c-1.734 2.735-2.207 4.375-2.207 7.634m-48.192 1.633c2.016 0 2.627.345 2.78 2.614.298 5.261.298 10.707.298 15.971 0 5.197-.077 13.966-.153 22.446l-.023 2.574c-.061 7.707-.122 15.342-.122 20.095 0 2.577-.779 3.205-3.979 3.205-.749 0-4.155-.077-4.689-.085v-66.82zm2.322-11.272c-3.361-.104-8.241-.214-11.899-.214-2.704 0-5.507.027-8.913.062l-9.57.051 1.238 2.159c1.58 2.74 1.985 4.322 1.985 7.686v69.755c0 3.15-.481 5.021-1.993 7.699l-1.214 2.152 17.565.064c12.457 0 19.789-1.057 24.516-3.538 5.209-2.737 7.531-7.302 7.531-14.803 0-4.804.076-13.132.153-21.181.076-7.993.152-16.257.152-20.983 0-4.988 0-10.144-.305-15.21-.626-9.706-5.285-13.032-19.246-13.699" style="fill:#231f20;fill-rule:nonzero" transform="translate(1755.01 519.3)scale(4.16667)"/><path d="M0 70.104h.821c.812 0 1.939.026 3.031.052 1.105.025 2.247.052 3.088.052 5.171 0 6.232-1.914 6.232-4.787 0-5.278.077-14.114.151-22.66.072-8.482.15-17.253.15-22.454 0-5.286 0-10.753-.301-16.031-.137-2.001-.65-4.132-5.029-4.132H0zm-2.335 8.183c-2.648 0-5.258-.015-7.847-.029-2.147-.012-4.281-.024-6.414-.028 1.639-2.911 2.155-4.97 2.155-8.281V.194c0-3.513-.436-5.298-2.147-8.275 2.32-.005 4.681-.028 6.974-.05 2.694-.026 5.48-.052 8.181-.052 3.623 0 8.467.108 11.795.209C23.201-7.359 26.881-4.738 27.46 4.22c.3 5.041.3 10.174.3 15.139 0 4.724-.075 12.984-.15 20.972-.074 8.056-.15 16.386-.15 21.192 0 6.956-2.046 11.132-6.636 13.54-4.305 2.259-11.231 3.224-23.159 3.224" style="fill:#231f20;fill-rule:nonzero" transform="translate(335.764 150.148)scale(4.16667)"/><path d="M0 86.193c1.658-2.933 2.155-4.895 2.155-8.165V8.272C2.155 4.718 1.74 2.999.008 0h18.985c-1.889 2.979-2.399 4.836-2.399 8.272v69.756c0 3.595.529 5.168 2.409 8.165z" style="fill:#231f20;fill-rule:nonzero" transform="translate(491.963 116.05)scale(4.16667)"/><path d="M0 86.193c1.657-2.934 2.154-4.896 2.154-8.167V7.905h-3.527c-2.981 0-6.117.185-9.099 1.401V0h39.689v9.281c-3.26-1.376-6.627-1.376-10.452-1.376h-2.172v70.121c0 3.552.418 5.185 2.262 8.167z" style="fill:#231f20;fill-rule:nonzero" transform="translate(861.405 116.055)scale(4.16667)"/><path d="M0 88.508c-9.059 0-19.996-2.005-20.646-11.562-.3-5.775-.3-11.605-.3-17.244 0-5.632.077-14.796.15-23.659.073-8.864.151-18.029.151-23.666C-20.645 4.511-13.185 0-.178 0 7.46 0 12.724 1.098 15.913 3.358c4.166 2.949 4.444 7.666 4.37 12.647-.035 2.293-.081 5.378 2.041 8.113-1.033.357-2.968 1.088-5.646 2.363-3.838 1.978-8.688 4.902-10.138 7.676-1.17 2.238.085 4.018 1.44 4.444l1.443.453-.301-1.088c-.22-.795-.001-1.523.618-2.048.513-.436 1.255-.686 2.036-.686q.15 0 .304.013c.756.062 1.496.49 1.932 1.115.494.706.494 1.498.001 2.069-.796.925-2.257 1.477-3.905 1.477-2.098 0-4.829-.978-5.618-3.734-.776-2.706.363-5.337 1.569-8.122.772-1.786 1.572-3.633 1.87-5.556.524-3.364.217-7.513-.729-9.871-.759-1.889-2.317-4.401-7.08-4.401-4.153 0-6.325 2.673-6.325 5.314v61.436c0 2.646 1.872 5.316 6.053 5.316 2.927 0 6.428-1.097 6.495-6.323.012-.842-.043-4.293-.086-7.065-.029-1.837-.054-3.412-.054-3.832l.002-.948c.011-3.246.023-6.595-1.102-9.746h16.323c-1.286 3.431-1.097 7.053-.929 10.274.068 1.322.145 9.696.145 11.061 0 10.236-6.366 14.799-20.642 14.799" style="fill:#231f20;fill-rule:nonzero" transform="translate(1451.255 111.342)scale(4.16667)"/><path d="M0 88.632c-15.258 0-18.749-4.956-19.299-12.396-.094-1.278-.118-9.851-.118-11.025 0-2.572-.356-4.687-1.118-6.588h15.943c-.783 2.258-1.165 4.87-1.165 7.954l-.006 2.024c-.013 2.539-.029 6.375-.024 6.858.036 2.436 1.763 5.057 5.475 5.057 3.601 0 5.354-3.16 5.46-6.094.047-1.383-.055-7.132-.123-10.938-.027-1.537-.049-2.696-.049-2.989 0-1.367 0-2.656-.159-4.049-.379-4.402-5.749-8.093-11.437-11.999-6.55-4.5-13.324-9.153-13.891-15.495-.102-1.033-.066-2.039-.033-3.011.017-.496.035-.988.035-1.48V11.659C-20.146 6.407-16.35.126-.405 0L.22.006c16.288 0 19.474 4.318 19.474 11.775 0 2.533.176 4.697 2.265 7.15-.968.339-2.704 1.021-5.212 2.279-5.326 2.886-8.566 5.481-9.653 7.729-1.091 2.256.223 4.015 1.591 4.419l1.459.429-.338-1.084c-.239-.759-.065-1.422.502-1.915.512-.444 1.293-.699 2.146-.699q.139-.001.277.008c.787.051 1.522.438 1.963 1.034.48.648.488 1.378.017 1.954-.788.965-2.274 1.543-3.975 1.543-2.052 0-4.757-.953-5.623-3.639-.935-2.901-.016-5.161.957-7.555.501-1.228 1.017-2.499 1.236-3.831.427-2.592-.02-5.086-.392-6.735-.641-2.83-3.052-4.587-6.294-4.587-3.997 0-6.349 2.384-6.449 6.54-.062 2.548.001 5.377.042 7.248.017.773.03 1.386.03 1.759 0 1.152 0 2.344.159 3.528.302 4.229 5.724 7.964 11.464 11.917 6.656 4.585 13.538 9.326 13.864 15.456.102 1.319.068 2.563.035 3.881-.018.658-.036 1.32-.036 1.994 0 1.75.102 9.077.151 12.6l.023 1.58c.077 5.606-.782 10.465-12.106 13.14-2.306.522-5.541.708-7.797.708" style="fill:#231f20;fill-rule:nonzero" transform="translate(694.48 111.35)scale(4.16667)"/><path d="m0-26.919 4.198.036c.23.006.479.009.726.009 6.411 0 7.758-2.436 7.758-4.482v-17.788c0-2.967-3.03-4.471-9.005-4.471H0zm35.979 61.626c-.651 0-1.336-.059-2.035-.176-3.588-.6-5.804-2.032-8.151-3.548-1.731-1.119-3.519-2.276-5.887-3.064-3.419-1.138-6.857-1.415-8.77-1.473.293-.365.611-.828.88-1.379.447-.923.847-2.723 1.068-4.816l.004-.06c.014-1.57.032-3.112.052-4.654.036-3.194.074-6.497.074-9.773 0-3.138-.228-16.024-.533-19.566-.161-3.604-1.953-4.84-7.371-5.069a24 24 0 0 0-1.831-.056c-.477 0-.962.007-1.429.014-.43.007-.844.012-1.228.012H0v.576c0 2.949-.036 8.206-.074 13.463C-.112.399-.148 5.659-.148 8.608c0 .729-.01 1.45-.019 2.169-.063 4.803-.124 9.356 2.582 13.896h-19.006c1.656-2.93 2.15-4.892 2.15-8.166v-69.756c0-3.555-.414-5.275-2.144-8.273 2.519-.006 5.063-.029 7.536-.051a973 973 0 0 1 8.969-.053c21.079 0 26.383 2.027 26.383 17.222 0 1.014.044 2.125.092 3.301.24 5.91.537 13.267-4.4 17.234l-.431.347.389.371c3.188 3.04 4.639 7.19 4.704 13.455.023 2 .006 8.374-.008 14.538-.008 3.632-.017 7.127-.017 9.447 0 2.228.215 6.493.812 9.115.619 2.728 2.741 7.459 4.79 8.964 1.771 1.3 3.522 1.493 4.407 1.493.777 0 1.45-.141 1.894-.4l1.199-.697-1.5-.299c-1.156-.231-1.979-.703-2.319-1.329-.291-.536-.198-1.132.258-1.633.414-.455 1.264-.739 2.217-.739 1.046 0 1.975.33 2.487.884.878.952.93 2.127.137 3.15-.926 1.196-2.808 1.909-5.033 1.909z" style="fill:#231f20;fill-rule:nonzero" transform="translate(1090.4 372.827)scale(4.16667)"/><path d="M0 86.193c1.658-2.933 2.155-4.895 2.155-8.165V8.272C2.155 4.718 1.74 2.999.008 0h18.985c-1.889 2.979-2.399 4.836-2.399 8.272v69.756c0 3.595.529 5.168 2.409 8.165z" style="fill:#231f20;fill-rule:nonzero" transform="translate(1247.11 116.05)scale(4.16667)"/><path d="M0 86.193c1.657-2.934 2.154-4.896 2.154-8.167V7.905h-3.527c-2.981 0-6.117.185-9.099 1.401V0h39.689v9.281c-3.26-1.376-6.627-1.376-10.452-1.376h-2.172v70.121c0 3.552.417 5.185 2.262 8.167z" style="fill:#231f20;fill-rule:nonzero" transform="translate(1623.901 116.055)scale(4.16667)"/><path d="M0-71.871c-.576 0-1.039.466-1.039 1.042V-.898C-1.039-.322-.576.144 0 .144c0 0 6.094.105 6.941.105 5.027 0 7.27-1.8 7.27-5.827 0-4.954.073-13.044.141-21.085l.028-3.11c.068-7.984.136-16.017.136-20.9 0-5.299 0-10.781-.305-16.086-.164-2.386-.995-5.112-6.066-5.112zM-14.883 6.191c1.096-2.321 1.486-4.338 1.486-7.242v-69.727c0-3.07-.345-4.948-1.457-7.245 0 0 10.725-.087 13.425-.087 3.609 0 8.444.107 11.759.206 13.087.63 15.595 3.485 16.092 11.216.299 5.005.299 10.12.299 15.068 0 4.717-.073 12.97-.147 20.955l-.017 1.531c-.068 7.561-.135 15.159-.135 19.661 0 6.606-1.819 10.377-6.083 12.614-4.14 2.172-10.924 3.098-22.672 3.098z" style="fill:#fff;fill-rule:nonzero" transform="translate(335.797 445.905)scale(4.16667)"/><path d="M0 84.073c1.101-2.302 1.474-4.24 1.474-7.118V7.225C1.474 4.104 1.147 2.274.028 0h15.425c-1.214 2.294-1.615 4.22-1.615 7.225v69.73c0 3.031.356 4.782 1.621 7.118z" style="fill:#fff;fill-rule:nonzero" transform="translate(499.167 120.444)scale(4.16667)"/><path d="M0 84.075c1.101-2.305 1.474-4.242 1.474-7.123V6.86c0-.576-.463-1.042-1.039-1.042h-3.524c-2.593 0-5.338.13-8.06.969V0h37.61v6.747c-2.976-.929-5.998-.929-9.415-.929h-2.169c-.576 0-1.039.466-1.039 1.042v70.092c0 3.118.327 4.886 1.502 7.123z" style="fill:#fff;fill-rule:nonzero" transform="translate(868.6 120.448)scale(4.16667)"/><path d="M0-13.123c-.113-.407-.023-.717.282-.977.322-.274.836-.438 1.367-.438.661.042 1.13.313 1.384.681.124.178.299.519.062.79-.542.633-1.587 1.043-2.779 1.108C.311-11.985 0-13.123 0-13.123m-10.127 49.756c-8.613 0-19.011-1.836-19.61-10.586-.299-5.731-.299-11.544-.299-17.168 0-5.298.073-13.729.141-22.09l.028-3.138c.068-8.357.136-16.777.136-22.078 0-7.2 7.082-11.329 19.423-11.329 7.416 0 12.483 1.034 15.487 3.163 3.762 2.658 4.005 6.906 3.937 11.778-.034 2.116-.073 4.915 1.474 7.604a62 62 0 0 0-4.484 1.943C.322-22.291-3.242-19.56-4.507-17.137q-.204.39-.339.783c-.034-1.915.83-3.906 1.734-5.991.819-1.898 1.627-3.782 1.943-5.807.553-3.584.231-7.869-.791-10.416-.503-1.252-2.039-5.053-8.048-5.053-4.835 0-7.365 3.197-7.365 6.352v61.412c0 3.062 2.219 6.355 7.094 6.355 4.8 0 7.472-2.61 7.534-7.347.011-.686-.023-3.092-.056-5.465l-.085-6.389c.011-2.889.022-5.829-.729-8.702H9.873c-.864 3.189-.695 6.403-.542 9.281.067 1.316.146 9.646.146 11.004 0 9.64-5.862 13.753-19.604 13.753" style="fill:#fff;fill-rule:nonzero" transform="translate(1493.489 323.055)scale(4.16667)"/><path d="M0-23.842c-.141-.449.011-.658.192-.816.322-.277.87-.444 1.463-.444.689.037 1.146.271 1.406.619.283.384.119.59.045.678-.525.638-1.553 1.062-2.745 1.144C.356-22.692 0-23.842 0-23.842m-10.799 55.176c-14.504 0-17.741-4.373-18.26-11.425-.091-1.155-.119-8.954-.119-10.945 0-2.104-.226-3.901-.7-5.542h13.081c-.537 2.026-.797 4.302-.797 6.909l-.034 8.877c.046 3.039 2.305 6.098 6.518 6.098 4.293 0 6.377-3.68 6.496-7.098.05-1.386-.051-7.165-.119-10.989l-.051-2.969c0-1.407 0-2.731-.164-4.166-.418-4.864-5.987-8.685-11.883-12.733-6.349-4.361-12.917-8.871-13.437-14.724-.102-.968-.068-1.898-.034-2.796l.034-1.601v-12.795c.474-6.824 7.071-10.518 19.068-10.611l.61.005c17.057 0 18.446 4.858 18.446 10.727 0 2.283.136 4.392 1.638 6.663a56 56 0 0 0-4.015 1.831c-5.615 3.042-8.913 5.719-10.122 8.202-.141.299-.26.601-.339.904-.242-1.958.441-3.647 1.215-5.55.536-1.322 1.067-2.633 1.304-4.062.452-2.774-.017-5.398-.406-7.129-.751-3.33-3.553-5.4-7.309-5.4-4.575 0-7.376 2.824-7.489 7.555-.062 2.514-.006 5.296.034 7.18l.039 1.847c0 1.198 0 2.435.164 3.666.328 4.661 5.953 8.533 11.901 12.628C.932-11.663 7.597-7.073 7.89-1.458c.096 1.291.068 2.48.034 3.739L7.89 4.36c0 1.751.102 9.084.153 12.609l.022 1.578c.074 5.33-.711 9.606-11.301 12.106-2.22.503-5.366.681-7.563.681" style="fill:#fff;fill-rule:nonzero" transform="translate(739.517 345.652)scale(4.16667)"/><path d="M0 91.735a1.04 1.04 0 0 0-.412-.181l-1.503-.299c-.966-.189-1.468-.542-1.609-.808.254-.582.768-.825 1.558-.825.74 0 1.418.215 1.729.548.463.503.542 1.031.237 1.565M-40.35 5.191c-.576 0-1.039.466-1.039 1.042v26.686c0 .57.457 1.036 1.028 1.042l4.931.045c7.658 0 8.799-3.46 8.799-5.522v-17.78c0-3.657-3.377-5.513-10.042-5.513zm30.974 87.276c-1.694-.661-3.078-1.551-4.597-2.531-1.808-1.167-3.649-2.361-6.145-3.189-2.644-.881-5.315-1.263-7.275-1.424.502-1.053.926-2.923 1.158-5.143l.073-5.793c.034-2.889.062-5.855.062-8.798 0-3.149-.226-16.085-.531-19.65-.214-4.717-3.36-5.804-8.364-6.016a25 25 0 0 0-1.876-.059l-3.479.028c-.576 0-1.039.466-1.039 1.042 0 3.52-.04 8.773-.079 14.024l-.091 15.625c-.056 4.428-.113 8.623 1.887 12.865h-15.549c1.095-2.302 1.468-4.239 1.468-7.12V6.6c0-3.126-.333-4.959-1.451-7.242 0 0 11.759-.09 14.769-.09 21.553 0 25.343 2.418 25.343 16.173 0 1.028.046 2.152.096 3.344.226 5.68.509 12.738-4.01 16.368-.237.189-.593.641-.604.937-.017.3-.113.763.102.972 3.36 3.209 4.71 7.126 4.772 13.086.017 1.709-.022 23.962-.022 23.962 0 2.28.22 6.646.835 9.344.582 2.561 2.457 6.945 4.547 9.013" style="fill:#fff;fill-rule:nonzero" transform="translate(1258.576 123.495)scale(4.16667)"/><path d="M0 84.073c1.101-2.302 1.474-4.237 1.474-7.118V7.225C1.474 4.113 1.147 2.28.028 0h15.425c-1.22 2.299-1.621 4.226-1.621 7.225v69.73c0 3.186.441 4.952 1.627 7.118z" style="fill:#fff;fill-rule:nonzero" transform="translate(1254.318 120.444)scale(4.16667)"/><path d="M0 84.075c1.101-2.305 1.474-4.242 1.474-7.123V6.86c0-.576-.463-1.042-1.039-1.042H-3.09c-2.592 0-5.337.13-8.059.969V0h37.61v6.747c-2.976-.929-5.998-.929-9.415-.929h-2.169c-.576 0-1.039.466-1.039 1.042v70.092c0 3.118.327 4.886 1.502 7.123z" style="fill:#fff;fill-rule:nonzero" transform="translate(1631.089 120.448)scale(4.16667)"/><path d="m0-31.21 1.494-2.534H-8.46l1.494 2.534v27.339h-7.795V-31.21l1.494-2.534h-9.954l1.494 2.534V0l-1.494 2.534H1.494L0 0z" style="fill:#fff;fill-rule:nonzero" transform="translate(2106.94 367.973)scale(4.16667)"/><path d="m0-31.21 1.494-2.534H-8.46l1.494 2.534v12.534h-7.795V-31.21l1.494-2.534h-9.954l1.494 2.534V0l-1.494 2.534h9.954L-14.761 0v-12.271h7.795V0L-8.46 2.534h9.954L0 0z" style="fill:#fff;fill-rule:nonzero" transform="translate(2377.852 367.973)scale(4.16667)"/><path d="M0-15.447h9.954L8.46-17.981v-5.348l1.494-2.533h-24.715l1.494 2.533v13.165L1.494.197V4.01h-7.795V2.533L-4.807 0h-9.954l1.494 2.533v5.348l-1.494 2.534H9.954L8.46 7.881v-13.28L-6.301-15.76v-3.697h7.795v1.476z" style="fill:#fff;fill-rule:nonzero" transform="translate(2693.423 335.134)scale(4.16667)"/><path d="M0-2.493V-12.98h7.795v6.038zm-8.46-16.892 1.494 2.534v31.21l-1.494 2.533h9.954L0 14.359V4.53l14.761-8.425v-12.956l1.494-2.534z" style="fill:#fff;fill-rule:nonzero" transform="translate(1812.301 308.145)scale(4.16667)"/><path d="M0 8.448 2.96-2.466 5.92 8.448zm15.977 11.395-8.465-31.21 1.494-2.534-12.084-.027 1.494 2.533-8.465 31.21-1.494 2.534h9.954l-1.494-2.534 1.346-4.962h9.395l1.353 4.99-1.494 2.533h9.954z" style="fill:#fff;fill-rule:nonzero" transform="translate(2440.844 285.295)scale(4.16667)"/><path d="M470.634 83.025h-7.795V59.558h7.795zm6.966-27.339 1.494-2.533h-24.715l1.494 2.533v31.21l-1.494 2.534h24.715l-1.494-2.534z" style="fill:#fff;fill-rule:nonzero" transform="translate(0 5.904)scale(4.16667)"/><path d="m0-31.21 1.494-2.534H-8.46l1.494 2.534v27.339h-7.795V-31.21l1.494-2.534h-9.954l1.494 2.534V0l-1.494 2.534H1.494L0 0z" style="fill:#fff;fill-rule:nonzero" transform="translate(2616.156 367.973)scale(4.16667)"/><path d="M0-23.467h7.795v6.037L0-12.98zM16.919 6.405l-1.494-2.533-4.563-16.029 3.899-2.226v-12.956l1.494-2.533H-8.46l1.494 2.534v31.21L-8.46 6.405h9.954L0 3.872v-9.829l4.87-2.78L8.459 3.872 6.965 6.405z" style="fill:#fff;fill-rule:nonzero" transform="translate(2162.48 351.842)scale(4.16667)"/></svg>