<svg width="32" height="32" viewBox="0 0 32 32" fill="none" xmlns="http://www.w3.org/2000/svg" role="img" aria-label="District Pour Haus">
  <!-- tile -->
  <rect width="32" height="32" rx="7" fill="#0E0E0F"/>
  <g transform="translate(16 16) scale(1.28) translate(-16.5 -16.3)">
    <!-- handle -->
    <path d="M19.5 13.5h2.2a4 4 0 0 1 4 4v0a4 4 0 0 1-4 4h-2.2" stroke="#C97B4A" stroke-width="2.4" fill="none" stroke-linecap="round"/>
    <!-- mug glass + beer -->
    <rect x="6.5" y="11.5" width="13" height="14" rx="2.2" fill="#C97B4A"/>
    <!-- glass sheen -->
    <rect x="9" y="13.5" width="2.2" height="10" rx="1.1" fill="#F5EFE6" opacity="0.28"/>
    <!-- foam head -->
    <path d="M6.5 12.5c0-2 1.7-3.2 3.3-2.8C10.2 7.9 12 7 13.4 8c1-1.6 3.4-1.5 4.2.2 1.7-.3 3.2 1 3.2 2.8 0 1.4-1.1 2.5-2.6 2.5H8.9c-1.4 0-2.4-1-2.4-2z" fill="#F5EFE6"/>
  </g>
</svg>
